<svg version="1" xmlns="http://www.w3.org/2000/svg" width="1889.333" height="1889.333" viewBox="0 0 1417.000000 1417.000000"><path d="M364.9 305.3c-4.1 2.7-5.9 6-5.9 10.8 0 6.7 3.1 9.5 22 20.1 9.6 5.4 18.2 10.2 19 10.5.8.4 13.7 7.4 28.5 15.6 14.9 8.2 29.5 16.3 32.5 18 3 1.6 13.4 7.3 23 12.7 9.6 5.3 22.3 12.3 28.3 15.6 5.9 3.3 10.7 6.6 10.8 7.4 0 .8.2 79.3.3 174.5l.1 173 2.1 4.6c2.7 5.7 6.3 9.2 13.4 12.8 5.6 2.9 9.2 2.9 10.2-.1.2-.7.4-79.9.4-176.1-.1-96.1.3-174.7.7-174.7.5 0 5.4 2.5 11 5.6 10.5 5.8 18.1 10.1 25.2 13.9 2.2 1.2 5.7 3.2 7.7 4.3 2.1 1.2 6.8 3.8 10.5 5.8 7.9 4.3 50.6 27.9 57.3 31.6 30.7 17.2 34.6 19.1 39.1 19.2 5.8.1 9.5-2.3 11.9-7.6 2.1-4.8 1.3-9.7-2.1-13.4-1.3-1.4-10.2-6.8-19.9-12.1-9.6-5.3-27.6-15.3-40-22.1-12.4-6.9-25.4-14.1-29-16-3.6-1.9-7.8-4.3-9.5-5.2-1.6-.9-5.5-3-8.5-4.7-52.3-29-54.4-30.1-69-38.1-3.6-1.9-7.8-4.3-9.5-5.2-1.6-1-20.3-11.4-41.5-23-21.2-11.7-51.3-28.3-67-37-15.7-8.6-31.5-17.4-35.2-19.4-7.7-4.2-12.1-4.6-16.9-1.3zM1047.8 303.5c-.2.1-2.8.6-5.8.9-26.6 3.1-47.4 11.2-82.3 32.3-4.8 2.9-9 5.3-9.2 5.3-.3 0-3.3 1.7-6.7 3.8-3.5 2.1-8.3 5-10.8 6.4-5.7 3.2-84.7 48.8-100 57.8-6.3 3.7-28.1 16.3-48.5 28-20.3 11.7-39.4 23.1-42.3 25.2-9.3 6.9-15.7 19-16.8 31.8-.7 8 .6 14.8 4.7 23.6 4.5 9.6 10.5 14.5 32.6 27.3 10.9 6.3 25 14.5 31.3 18.1 6.3 3.7 13.1 7.7 15 8.7 1.9 1.1 15 8.7 29 16.8 14 8.1 27.1 15.7 29 16.8 4.4 2.4 34.7 20 72 41.5 15.7 9.1 30.1 17.4 32 18.4 4.7 2.7 27.6 16 32 18.7 1.9 1.1 4.2 2.4 5 2.8.8.4 5.3 2.9 9.9 5.6 17.9 10.6 27.7 13.7 43.1 13.7 9.5 0 22.6-2.7 29.3-6.1 2.3-1.2 10.5-5.8 18.2-10.2 7.7-4.4 15.3-8.8 16.8-9.6 1.6-.9 3.6-2.1 4.5-2.6.9-.6 4.9-2.8 8.7-4.9 3.9-2.2 8.1-4.7 9.5-5.6 1.4-.9 5-3.1 8-4.7 3-1.7 19-10.8 35.5-20.3 16.5-9.6 44.9-25.9 63-36.3 28.5-16.4 45.5-26.1 88.5-50.9 4.7-2.6 9.2-5.3 10-5.8.8-.4 6.8-3.9 13.3-7.6 17.8-10.2 24-16.4 28.6-28.8 5.9-16 1.8-34.9-10.1-46.6-4.2-4.1-16.9-11.8-58.3-35.7-29.1-16.8-54.6-31.4-56.5-32.5-3.7-2.1-13.3-7.6-16.2-9.3-2.9-1.7-24.2-13.9-26.3-15.1-1.1-.6-21.8-12.5-46-26.4-24.2-14-48-27.3-53-29.6-14.5-6.8-28.3-10.9-47.5-14-3-.5-32.7-1.3-33.2-.9zm30.2 26.9c3 .4 6.3.9 7.2 1.2.9.3 2.5.6 3.5.8 18 3.6 25.9 7.2 67.3 31.1 55.5 32 139.7 80.4 144.5 83 2.8 1.6 6.6 3.8 8.5 5 1.9 1.2 4.2 2.4 5 2.8.8.4 2.2 1.1 3 1.7 2.3 1.5 22.1 13 22.5 13 .5 0 22.9 13.4 25.1 15 5.1 3.7 7.8 11.4 6.2 18.2-1.7 7.8-4.5 10.2-23.8 21-2.5 1.4-13.3 7.6-24 13.8-16.5 9.6-40.9 23.6-56.5 32.5-2.2 1.3-8 4.7-13 7.5-4.9 2.9-9.9 5.8-11 6.4-5.5 3.1-25 14.3-27.3 15.7-1.5.9-9 5.2-16.7 9.6-7.7 4.4-24.6 14.1-37.5 21.5-12.9 7.5-25.1 14.5-27 15.6-1.9 1-13.8 7.9-26.5 15.2-31.4 18.2-33.9 19.3-44.6 19.6-6.1.2-10.3-.2-14.5-1.5-3.5-1.1-20.4-10.1-41.9-22.6-19.8-11.4-43.4-25.1-52.5-30.3-9.1-5.2-26.2-15.1-38-22s-23.5-13.6-26-15c-2.5-1.4-18.4-10.6-35.5-20.5-17-9.9-32.9-19-35.2-20.3-2.3-1.3-10.8-6.3-19-11-8.1-4.8-16.8-9.8-19.3-11.2-13.4-7.5-22.7-13.3-24.7-15.4-6.4-6.8-6.4-18.3-.1-25 2.2-2.3 5-4.2 12.8-8.6 4.7-2.6 85.1-49 87-50.2 2.5-1.5 17.7-10.3 50-29 99.4-57.5 96-55.6 107-59.7 11.6-4.4 21.5-6.8 32.2-7.9 3.5-.3 6.4-.7 6.5-.8.5-.5 21.1.2 26.3.8zM289.5 312c-8.8 2.4-13.3 5-65.3 37.1-7.9 4.9-14.8 8.9-15.3 8.9s-.9.4-.9 1c0 .5-.4 1-1 1-.5 0-5.6 2.9-11.2 6.3-5.7 3.5-34.1 20.9-63.3 38.7-54.7 33.3-62.4 38.5-73.6 49.2-23.5 22.5-41 55.6-46.4 87.3-.3 2.2-.9 5.1-1.2 6.5-.8 3.2-1.6 341.5-.8 345.6.6 3.6 5.7 9.4 8.3 9.5.9 0 2.8.2 4 .5 3.5.6 8.9-2.3 11.3-6.2l2-3.4.3-170.2c.2-169.8.2-170.3 2.3-179.8 9.2-40.8 31-70.5 66.6-90.9 3.3-1.9 64.2-39 79.7-48.6 4.7-2.9 23.1-14.1 41-25s34.1-20.7 36-22c13.8-8.8 29.3-17.6 33.8-19.1 12.6-4 27.8 2.2 34.9 14.3 5.4 9.2 4.9-3.4 5.8 160.8.2 32.4.4 84.6.5 116 .2 31.3.7 58.3 1.1 60 .5 1.7 2.3 4.4 4 6.1 2.6 2.5 3.8 2.9 8.4 2.9 4.6 0 5.8-.4 8.4-2.9 1.7-1.7 3.5-4.4 3.9-6 .5-1.7.7-18.6.6-37.6-.1-19-.5-90.7-.8-159.5-.6-115.2-.9-129-2.1-135.5-2.5-12.9-12.4-28.1-23.8-36.4-13-9.5-31.8-12.9-47.2-8.6zM1389 562.3c-1.4.8-7.7 4.3-14 7.9-6.3 3.6-13.7 7.7-16.5 9.3-2.7 1.5-9.5 5.3-15 8.5-8.2 4.8-40.2 22.9-59.5 33.8-2.5 1.4-11 6.2-19 10.7-8 4.6-16.3 9.3-18.5 10.5-2.2 1.2-10.5 5.9-18.5 10.5-19.5 11.1-94.2 53.5-100.5 57-23.1 12.7-30.8 18.7-40.2 31-4.5 5.9-9.9 16.1-12.3 23.5-2.2 6.5-2.5 7.7-3.7 13.5-.9 5-1.1 111.6-.1 115.9 3.1 14.4 15.8 26.8 29.8 29.1 10.6 1.8 17.9.1 30.8-7.3 4.8-2.7 39.1-22.4 76.2-43.7 37.1-21.3 69.3-39.8 71.5-41 4.6-2.7 15.7-9 41-23.5 9.9-5.7 19.4-11.1 21-12 1.7-.9 10.7-6.1 20-11.5 9.4-5.4 17.2-9.9 17.5-10 .6-.4 1.2 38.3 1.4 87.5.1 38.6 0 40.1-5.7 51.5-2.9 5.9-9.5 14.8-12.9 17.3-.9.7-2.3 1.8-3 2.5-1.7 1.6-9.6 6.5-17.8 11-7.9 4.2-10.6 5.7-33.5 18.4-9.9 5.5-20.7 11.5-24 13.3-3.3 1.8-9.5 5.3-13.8 7.7-4.2 2.4-9.6 5.4-12 6.7-6.3 3.5-87.4 48.4-93.2 51.6-2.7 1.5-17.1 9.5-32 17.8-36.2 20.1-35.2 19.5-42 23.2-17 9.3-19.4 11.5-20 18.5-.4 4.1 3.2 10.1 7.1 12 4.3 2 8.2 1.9 12.4-.4 2-1 18.8-10.3 37.5-20.7 18.7-10.3 36.5-20.1 39.5-21.7 3-1.6 6-3.3 6.5-3.7.6-.4 4.2-2.4 8-4.5 3.9-2.1 27.7-15.3 53-29.3s48-26.6 50.5-28c72.3-39.9 82.5-45.7 89.5-51 11.6-8.8 21.8-22.5 26.9-36 5.3-14.1 5.1-11.8 4.9-73.7-.2-71.1-.5-76.9-3.3-82.5-6.2-12.1-21.6-17.9-32.6-12.4-5 2.5-15 8-18.9 10.3-4.5 2.6-63.3 36.4-68.5 39.3-2.5 1.4-6.8 3.9-9.6 5.5-2.7 1.7-7 4.1-9.5 5.5-2.4 1.4-18.3 10.5-35.4 20.3-94.1 54.1-118 67.5-120.2 67.5-4.2 0-9-2.9-10.4-6.3-1.1-2.5-1.3-14-1.3-53.7 0-27.8.4-52.6.7-55.2 2.6-17 13.9-32.6 31-42.6 4.9-2.9 9-5.2 9.2-5.2.2 0 3.6-1.9 7.7-4.3 4-2.4 9.8-5.7 12.8-7.4 3-1.7 15.6-8.8 28-15.8 12.4-7.1 24.3-13.8 26.5-15 2.2-1.2 6.4-3.6 9.3-5.4 2.9-1.7 5.5-3.1 5.7-3.1.2 0 3.6-1.9 7.7-4.3 4-2.4 8-4.6 8.8-5 .8-.4 3.1-1.7 5-2.8 4.4-2.7 24.7-14.2 32-18.2 3-1.7 8.8-5 12.8-7.4 4.1-2.4 7.5-4.3 7.7-4.3.2 0 3.8-2 7.9-4.5 4.2-2.5 7.9-4.5 8.2-4.5.3 0 1.8-.8 3.2-1.9 1.5-1 5.4-3.3 8.7-5.1 3.3-1.8 17.3-9.7 31.1-17.5 13.8-7.9 26.8-15.2 29-16.4 15.1-8.3 17.2-10.2 18.1-16.8 1.3-9.9-9.8-17.7-18.7-13zM742 578.1c-9.7 1.4-17.4 7.2-21.3 15.9-1.8 4.1-2 7.2-2.3 38.5-.5 55.6-.5 92.8.1 95.5.2 1.3.7 4.2 1.1 6.3.6 4.6 4.7 16.4 7.7 22.2 5.6 11.3 17.1 24.6 26.8 31.2 3.5 2.4 68.6 40.5 76.4 44.7 1.1.6 2.7 1.6 3.5 2.2.8.6 4.2 2.6 7.5 4.4 3.3 1.8 26.5 15.2 51.5 29.8 25 14.6 46.9 27.3 48.5 28.2 1.7 1 8.2 4.8 14.5 8.5 6.3 3.7 13.5 7.9 16 9.3 10.7 6 22 12.8 28.3 17 7.5 4.9 15.7 14.4 19.6 22.5 5.3 11.1 5.4 11.6 5.6 65.7.1 27.8 0 51.9-.3 53.6-.8 5.7-6.7 10.6-12.7 10.6-4 0-3.2.4-42.4-22.4-17.9-10.5-34.2-19.9-36.1-21-1.9-1.1-7.5-4.4-12.5-7.3-4.9-2.9-23.2-13.5-40.5-23.6-17.3-10-32.8-19-34.5-20-1.6-1-4.6-2.7-6.5-3.8-1.9-1-9.8-5.6-17.5-10.1-7.7-4.5-15.3-9-17-10-1.6-.9-11.3-6.5-21.5-12.5-10.2-5.9-20.5-11.9-23-13.3-2.5-1.4-7.3-4.3-10.8-6.4-3.4-2.1-6.5-3.8-6.7-3.8-.3 0-2.4-1.2-4.6-2.6-9.8-6.1-20.4-1.4-21.5 9.5-.6 7 3.2 10.7 22.1 21.1 3.3 1.8 7.1 4.1 8.5 5 1.4.9 5 3 8 4.7 3 1.7 19 10.9 35.5 20.5s49.6 28.9 73.5 42.8c23.9 13.9 48.7 28.3 55 32 16.4 9.6 60.8 35.4 65 37.8 1.9 1 5.1 2.9 7 4 19.4 11.6 45.3 4.2 55.5-15.8 4.4-8.5 4.5-10.7 4.2-68-.2-30-.6-55.4-1-56.5-.3-1.1-1.3-4.7-2.1-8-2.2-8.3-9.7-22.7-15.7-30.2-7.6-9.6-15.7-15.6-40.1-29.8-48.7-28.2-95-55.2-109.3-63.5-8.2-4.9-27.6-16.1-43-25-15.4-9-35.9-20.9-45.5-26.5-9.6-5.6-18.6-10.8-20-11.6-10.2-5.8-18.9-15.1-24-25.4-7-14.2-7-13.8-6.6-80.3.3-32.7.6-59.6.9-59.8.4-.4 28 15.3 119.7 68.1 33.6 19.4 72.3 41.6 76.9 44.3 2.5 1.4 6.7 3.8 9.3 5.3 2.7 1.6 5 2.9 5.2 2.9.2 0 5.6 3.1 12 7 6.5 3.8 11.9 7 12.2 7 .2 0 2.1 1.1 4.2 2.3 2 1.3 5.7 3.5 8.2 4.9 2.5 1.4 13.2 7.5 23.7 13.6 21.7 12.4 23.4 13.1 28.2 12.1 5.3-1.1 9.3-5.8 9.8-11.6.7-8-.7-9.3-25.8-23.8-22.2-12.7-56.7-32.6-64.4-37-2.2-1.2-13.7-7.8-25.5-14.7-11.8-6.8-22.4-12.9-23.5-13.6-1.1-.6-9-5.1-17.5-10s-24.5-14.1-35.5-20.4c-11-6.4-21.8-12.6-24-13.8-2.2-1.2-20.4-11.7-40.5-23.3-20.1-11.6-38.3-22-40.5-23-5.3-2.7-10-3.4-15.5-2.6zM368 708.8c-6.5 3.2-9.1 12.2-5.6 18.9 1.6 3.3-1.4 1.3 109.1 69.1 26.4 16.2 50.7 31.1 54 33.2 3.3 2.1 21.3 13.1 40 24.5 18.7 11.5 44.4 27.2 57 35 12.7 7.7 27.7 17 33.3 20.5 5.7 3.4 10.6 6.9 10.9 7.6 1.6 4.3.5 8.2-3 10.4-1.2.7-24 14.6-50.7 30.8-43.4 26.4-58.3 35.5-108 65.7-7.4 4.5-26.1 15.8-41.5 25.2-34 20.7-37.1 22.4-46.1 26.2-27.4 11.2-59.2 11.3-87.2 0-9.8-3.9-10.1-4.1-62.7-36.3-24.2-14.8-49.2-30-55.5-33.8-6.3-3.8-13.1-8-15-9.2-4.1-2.7-18.7-11.6-47.5-29.1-11.5-7-22.6-13.7-24.5-15-1.9-1.2-19.1-11.8-38.2-23.4-37.1-22.6-37.8-22.9-44.7-19.3-9 4.6-9.3 17.4-.5 23.4 3.8 2.6 29 18 32.9 20.2 1.1.6 3.1 1.9 4.5 2.8 1.4.9 24.8 15.2 52 31.8 27.2 16.7 61.4 37.6 76 46.5 110.1 67.5 108.2 66.4 126.4 71.5 7.7 2.1 8.9 2.4 15.6 3.6 1.9.4 4.4.9 5.5 1.1 5.2 1.2 30.7 1 39.5-.3 13-2 28.3-6.6 39.3-11.8 5.1-2.3 22.7-12.5 39.2-22.6 16.5-10.1 31.2-19 32.7-19.9 1.5-.9 8.7-5.2 16-9.7 39.9-24.2 70.3-42.7 78.3-47.6 15.1-9.2 60.8-37 63.7-38.7 17.6-10.5 20.9-13.1 25.1-19.6 8.4-13 6.5-32.5-4.1-43.3-3.9-3.9-37-25.1-62.1-39.8-2-1.2-14.2-8.7-27.1-16.6-41.8-25.8-172.9-106.3-175.8-107.9-1.5-.9-10.4-6.3-19.7-12.1-24.9-15.4-24.9-15.4-31.5-12z"/></svg>